<svg xmlns="http://www.w3.org/2000/svg" height="24" viewBox="0 -960 960 960" width="24"><path d="M438-235.231 303.692-369.538l45.77-45.77L438-326.769l174.538-174.539 45.77 45.77L438-235.231ZM218.615-90q-38.34 0-64.478-26.137Q128-142.275 128-180.615v-522.77q0-38.34 26.137-64.478Q180.275-794 218.615-794h38.769v-85.231h69.077V-794h310.154v-85.231h66.001V-794h38.769q38.34 0 64.478 26.137Q832-741.725 832-703.385v522.77q0 38.34-26.137 64.478Q779.725-90 741.385-90h-522.77Zm0-66h522.77q9.23 0 16.923-7.692Q766-171.385 766-180.615v-374.77H194v374.77q0 9.23 7.692 16.923Q209.385-156 218.615-156ZM194-621.385h572v-82q0-9.23-7.692-16.923Q750.615-728 741.385-728h-522.77q-9.23 0-16.923 7.692Q194-712.615 194-703.385v82Zm0 0V-728v106.615Z"/></svg>