<svg xmlns="http://www.w3.org/2000/svg" height="24" viewBox="0 -960 960 960" width="24"><path d="M211.231-226v56q0 10.2-7.75 17.1-7.75 6.9-18.547 6.9h-14.637q-10.797 0-18.547-6.9T144-170v-305.846L227.384-710q3.566-11.339 13.573-17.669Q250.964-734 263.231-734h436.615q11.118 0 20.188 6.6 9.071 6.6 12.582 17.4L816-475.846V-170q0 10.2-7.75 17.1-7.75 6.9-18.547 6.9h-14.637q-10.797 0-18.547-6.9t-7.75-17.1v-56H211.231Zm3.384-299.846h530.77L688.462-684H271.538l-56.923 158.154Zm-20.615 50V-276v-199.846Zm101.104 147.538q19.665 0 34.05-14.565 14.385-14.566 14.385-34.231t-14.566-34.05q-14.566-14.385-34.231-14.385t-34.05 14.566q-14.384 14.566-14.384 34.231t14.565 34.05q14.566 14.384 34.231 14.384Zm370.154 0q19.665 0 34.05-14.565 14.384-14.566 14.384-34.231t-14.565-34.05q-14.566-14.385-34.231-14.385t-34.05 14.566q-14.385 14.566-14.385 34.231t14.566 34.05q14.566 14.384 34.231 14.384ZM194-276h572v-199.846H194V-276Z"/></svg>