<svg xmlns="http://www.w3.org/2000/svg" height="24" viewBox="0 -960 960 960" width="24"><path d="M321.385-708.923q-32.616 0-55.154-22.539-22.539-22.538-22.539-55.154 0-32.615 22.539-55.154 22.538-22.538 55.154-22.538 32.615 0 55.154 22.538 22.538 22.539 22.538 55.154 0 32.616-22.538 55.154-22.539 22.539-55.154 22.539ZM556-164H320q-48.616 0-75.231-20.231-26.615-20.23-36.077-68.846L123.538-678H192l83.385 423.385q2.307 9.23 11.153 16.923Q295.385-230 304.615-230H556v66Zm217.077 87.385L660.923-270H374.154q-26.077 0-45.423-16.269-19.346-16.27-26.577-42.808l-47.077-222.769q-8.692-47.077 22.654-81t75.808-33.923q32.077 0 59.077 19.269t34.461 53.346L493.693-378h140.461q20.615 0 37 9.423t26.077 27.346l134.462 232.616-58.616 32Z"/></svg>