<svg xmlns="http://www.w3.org/2000/svg" height="24" viewBox="0 -960 960 960" width="24"><path d="M166-128v-613.385q0-38.34 26.137-64.478Q218.275-832 256.615-832h196.77q38.34 0 64.478 26.137Q544-779.725 544-741.385v256h24.923q36.554 0 62.585 26.031t26.031 62.585v171.077q0 19.065 13.621 32.686 13.621 13.621 32.686 13.621 19.066 0 32.687-13.621 13.621-13.621 13.621-32.686v-288.616q-9.621 5.77-20.31 8.423-10.69 2.654-21.69 2.654-37.662 0-64.523-27.361-26.862-27.362-26.862-66.023 0-30.385 16.846-55.27 16.847-24.884 46.539-32.731l-90.308-90.307L624.923-812l147.231 144.307q13.923 14.105 21.654 32.475 7.731 18.369 7.731 38.603v371.141q0 40.613-28.246 69.043Q745.047-128 704.139-128t-69.446-28.331q-28.539-28.33-28.539-69.361v-183.693q0-10.769-6.923-17.692T581.539-434H544v306H166Zm66-426h246v-187.385q0-9.23-7.692-16.923Q462.615-766 453.385-766h-196.77q-9.23 0-16.923 7.692Q232-750.615 232-741.385V-554Zm477.154-.615q17.425 0 29.213-11.788 11.787-11.787 11.787-29.212 0-17.425-11.787-29.213-11.788-11.787-29.213-11.787t-29.212 11.787q-11.788 11.788-11.788 29.213t11.788 29.212q11.787 11.788 29.212 11.788ZM232-194h246v-294H232v294Zm246 0H232h246Z"/></svg>