<svg xmlns="http://www.w3.org/2000/svg" height="24" viewBox="0 -960 960 960" width="24"><path d="M541.706-468.077q-34.14 0-57.423-23.283T461-548.783q0-34.14 23.369-56.717 23.368-22.577 57.631-22.577 33.43 0 56.215 22.785Q621-582.507 621-549.077q0 34.263-22.577 57.632-22.577 23.368-56.717 23.368ZM284.308-311.385q-38.654 0-64.635-25.98-25.981-25.981-25.981-64.635v-292.154q0-38.654 25.981-64.635t64.635-25.981h515.385q38.653 0 64.634 25.981t25.981 64.635V-402q0 38.654-25.981 64.635-25.981 25.98-64.634 25.98H284.308Zm52-66h411.384q0-31.846 22.506-54.231Q792.704-454 824.308-454v-188.154q-31.846 0-54.231-22.506-22.385-22.505-22.385-54.109H336.308q0 31.846-22.506 54.231-22.506 22.384-54.11 22.384V-454q31.847 0 54.231 22.506 22.385 22.505 22.385 54.109Zm431.539 188.001h-607.54q-38.654 0-64.634-25.981Q69.692-241.346 69.692-280v-384.308h66V-280q0 9.231 7.692 16.923 7.693 7.692 16.923 7.692h607.54v66.001ZM284.308-377.385h-24.616v-341.384h24.616q-10 0-17.308 7.307-7.308 7.308-7.308 17.308V-402q0 10 7.308 17.308 7.308 7.307 17.308 7.307Z"/></svg>